# xmcd CD database file generated by OrangeCD 5.2
#
# Track frame offsets:
#	150
#	4031
#	19603
#	35922
#	53790
#	67853
#	87446
#	103639
#	118395
#	132433
#	148978
#	160150
#	172228
#	183597
#
# Disc length: 2628 seconds
#
# Revision: 1
# Processed by: cddbd v1.5.2PL0 Copyright (c) Steve Scherf et al.
# Submitted via: OrangeCD 5.2
#
DISCID=cb0a420e
DTITLE=Darrell Toney - Jerry Reed... Revisited
DYEAR=2006
DGENRE=Guitar
TTITLE0=Stand Back...Here We Come!
TTITLE1=Jerry's Breakdown
TTITLE2=Bluesland
TTITLE3=Funky Junk
TTITLE4=The Claw
TTITLE5=Dreaming Fairytales
TTITLE6=First Born
TTITLE7=Stump Water
TTITLE8=Reedology
TTITLE9=Bake
TTITLE10=The Mad Russian
TTITLE11=Reed That Thang
TTITLE12=Jiffy Jam
TTITLE13=The Early Dawn
EXTD=
EXTT0=
EXTT1=
EXTT2=
EXTT3=
EXTT4=
EXTT5=
EXTT6=
EXTT7=
EXTT8=
EXTT9=
EXTT10=
EXTT11=
EXTT12=
EXTT13=
PLAYORDER=
